#!OML:ASF H:\MichaelJackson\Top Level 1\Subject 1\Session 1\male.ASF
:FULLY-SPECIFIED
:DEGREES
589
root 4.18555 15.8971 26.3663 -357.782 -1.1109 -8.59635
lowerback 3.97042 4.06291 3.59751
upperback -0.093625 5.65433 2.8642
thorax -2.25988 2.79511 0.612138
lowerneck -6.01838 -5.10188 0.672169
upperneck -0.197638 -6.86805 1.59829
head 0.967838 -3.40481 0.201197
rclavicle -6.02566e-015 -2.01269e-014
rhumerus -26.5946 20.4284 -87.3806
rradius 59.3009
rwrist 11.1095
rhand -23.2949 -20.3318
rfingers 7.12502
rthumb 3.1583 -410.288
lclavicle -6.02566e-015 -2.01269e-014
lhumerus -45.1347 -4.12241 81.2145
lradius 51.9604
lwrist 22.0893
lhand -15.9219 13.2043
lfingers 7.12502
lthumb 10.2755 42.9333
rfemur -8.50348 -10.9998 28.5389
rtibia 45.9987
rfoot -34.5726 3.13234
rtoes 10.4038
lfemur -50.2231 22.3084 -20.4249
ltibia 44.9378
lfoot -10.0153 -6.1861
ltoes 4.5339
590
root 4.19763 15.8943 26.5334 -357.914 -1.18963 -8.91131
lowerback 3.71691 4.14989 3.57923
upperback -0.20709 5.76472 3.00328
thorax -2.25001 2.85139 0.773285
lowerneck -5.98609 -5.20661 0.721965
upperneck 0.0161566 -7.01468 1.61152
head 1.02917 -3.47577 0.190483
rclavicle -3.9465e-014 -2.84262e-014
rhumerus -26.1498 20.5704 -86.9916
rradius 59.8297
rwrist 10.4731
rhand -22.7331 -19.0331
rfingers 7.12502
rthumb 3.70081 -408.981
lclavicle -3.9465e-014 -2.84262e-014
lhumerus -45.9868 -3.67308 80.7014
lradius 51.5532
lwrist 21.124
lhand -14.8165 12.7432
lfingers 7.12502
lthumb 11.3418 42.4165
rfemur -7.31093 -10.7923 28.6716
rtibia 45.3318
rfoot -34.595 3.01704
rtoes 9.61207
lfemur -49.3186 20.9929 -19.1425
ltibia 43.855
lfoot -10.0115 -6.23658
ltoes 4.78647
591
root 4.20988 15.8919 26.7051 -358.093 -1.10505 -9.17799
lowerback 3.42366 4.19719 3.48643
upperback -0.309116 5.81635 3.14046
thorax -2.2142 2.88001 0.980278
lowerneck -5.94035 -5.33349 0.755959
upperneck 0.245647 -7.19082 1.66053
head 1.09542 -3.56066 0.192358
rclavicle 1.11394e-013 5.65542e-014
rhumerus -25.8908 20.5441 -86.5576
rradius 60.5138
rwrist 9.63765
rhand -22.1454 -17.6837
rfingers 7.12502
rthumb 4.26837 -407.621
lclavicle 1.11394e-013 5.65542e-014
lhumerus -46.8345 -3.29583 80.2356
lradius 51.2217
lwrist 20.1204
lhand -13.7859 12.1806
lfingers 7.12502
lthumb 12.3355 41.7967
rfemur -6.16547 -10.8117 28.7079
rtibia 44.8583
rfoot -34.5516 3.09315
rtoes 8.72762
lfemur -48.3481 19.4533 -17.857
ltibia 42.9826
lfoot -9.85269 -6.46769
ltoes 5.57114
592
root 4.22319 15.8906 26.8816 -358.342 -0.850575 -9.39148
lowerback 3.1138 4.20324 3.32665
upperback -0.39637 5.80907 3.27128
thorax -2.1602 2.88057 1.22239
lowerneck -5.88548 -5.48248 0.778866
upperneck 0.503968 -7.39713 1.73868
head 1.17124 -3.6597 0.203636
rclavicle 5.21872e-014 -1.00386e-014
rhumerus -25.8461 20.3732 -86.0827
rradius 61.3609
rwrist 8.5563
rhand -21.5858 -16.3922
rfingers 7.12502
rthumb 4.80869 -406.318
lclavicle 5.21872e-014 -1.00386e-014
lhumerus -47.6581 -3.00321 79.8259
lradius 50.9554
lwrist 19.2061
lhand -12.8132 11.6397
lfingers 7.12502
lthumb 13.2733 41.197
rfemur -5.07994 -11.1353 28.615
rtibia 44.6464
rfoot -34.4087 3.43565
rtoes 7.76338
lfemur -47.3067 17.7484 -16.6431
ltibia 42.2916
lfoot -9.46567 -6.84592
ltoes 6.94356
593
root 4.23835 15.8908 27.0626 -358.653 -0.477465 -9.56065
lowerback 2.78724 4.18154 3.11183
upperback -0.468881 5.76186 3.39598
thorax -2.08603 2.86226 1.49216
lowerneck -5.83414 -5.64728 0.793204
upperneck 0.802462 -7.62595 1.84017
head 1.26229 -3.76885 0.221702
rclavicle 7.39914e-014 2.75317e-014
rhumerus -26.018 20.0996 -85.5624
rradius 62.3661
rwrist 7.16573
rhand -21.105 -15.2234
rfingers 7.12502
rthumb 5.27296 -405.138
lclavicle 7.39914e-014 2.75317e-014
lhumerus -48.435 -2.78992 79.4763
lradius 50.7441
lwrist 18.49
lhand -11.9011 11.2454
lfingers 7.12502
lthumb 14.1523 40.7434
rfemur -4.10989 -11.7841 28.3738
rtibia 44.7754
rfoot -34.1083 4.10386
rtoes 6.64742
lfemur -46.2289 16.011 -15.5753
ltibia 41.7602
lfoot -8.76124 -7.29647
ltoes 8.82024
594
root 4.25643 15.8942 27.2469 -359.014 -0.0395173 -9.68985
lowerback 2.45361 4.14518 2.85756
upperback -0.532267 5.69401 3.51155
thorax -2.00053 2.8342 1.77594
lowerneck -5.79336 -5.82325 0.812201
upperneck 1.1531 -7.87219 1.94529
head 1.37249 -3.8856 0.238012
rclavicle 1.84808e-015 -3.18055e-015
rhumerus -26.3907 19.7627 -84.9983
rradius 63.4896
rwrist 5.48314
rhand -20.7557 -14.2436
rfingers 7.12502
rthumb 5.61023 -404.149
lclavicle 1.84808e-015 -3.18055e-015
lhumerus -49.1541 -2.64098 79.1836
lradius 50.5814
lwrist 18.0424
lhand -10.9781 11.0624
lfingers 7.12502
lthumb 15.0416 40.496
rfemur -3.32099 -12.7599 27.9571
rtibia 45.3296
rfoot -33.5515 5.19
rtoes 5.4801
lfemur -45.1423 14.3444 -14.6963
ltibia 41.3821
lfoot -7.70218 -7.73916
ltoes 11.3638
595
root 4.27863 15.901 27.433 -359.427 0.435962 -9.78034
lowerback 2.14529 4.09461 2.5886
upperback -0.589656 5.60881 3.61078
thorax -1.92153 2.79732 2.04988
lowerneck -5.76452 -6.00145 0.844115
upperneck 1.55477 -8.12451 2.04411
head 1.50108 -4.00427 0.248383
rclavicle -1.01023e-013 -6.55989e-015
rhumerus -26.9356 19.3585 -84.3994
rradius 64.6797
rwrist 3.5793
rhand -20.5101 -13.4324
rfingers 7.12502
rthumb 5.8473 -403.332
lclavicle -1.01023e-013 -6.55989e-015
lhumerus -49.802 -2.53005 78.9296
lradius 50.4486
lwrist 17.8918
lhand -10.0221 11.1105
lfingers 7.12502
lthumb 15.9624 40.4728
rfemur -2.76396 -14.0544 27.3379
rtibia 46.3896
rfoot -32.6107 6.71119
rtoes 4.27734
lfemur -44.0587 12.8057 -14.0241
ltibia 41.1624
lfoot -6.42873 -8.09503
ltoes 14.302
596
root 4.30512 15.9111 27.6182 -359.853 0.859239 -9.84183
lowerback 1.86097 4.04888 2.32091
upperback -0.648401 5.53239 3.69535
thorax -1.85493 2.76442 2.30575
lowerneck -5.74483 -6.17005 0.878077
upperneck 1.99146 -8.36623 2.13947
head 1.64314 -4.11666 0.256246
rclavicle 1.82571e-014 8.54774e-015
rhumerus -27.5997 18.8978 -83.7675
rradius 65.8702
rwrist 1.54329
rhand -20.327 -12.7579
rfingers 7.12502
rthumb 6.02414 -402.652
lclavicle 1.82571e-014 8.54774e-015
lhumerus -50.3734 -2.41189 78.695
lradius 50.3387
lwrist 18.0213
lhand -9.00082 11.3497
lfingers 7.12502
lthumb 16.9456 40.6305
rfemur -2.53655 -15.5563 26.5247
rtibia 48.0201
rfoot -31.1054 8.65318
rtoes 3.20036
lfemur -43.0244 11.4863 -13.5428
ltibia 41.1148
lfoot -5.16432 -8.24912
ltoes 16.8904
597
root 4.33608 15.9239 27.8 -360.284 1.19732 -9.87461
lowerback 1.62303 4.01192 2.07769
upperback -0.704066 5.47098 3.76001
thorax -1.80643 2.73826 2.52377
lowerneck -5.73773 -6.32182 0.908666
upperneck 2.44111 -8.58714 2.23659
head 1.79276 -4.21778 0.264712
rclavicle -3.01178e-014 -5.66536e-014
rhumerus -28.3244 18.3779 -83.1023
rradius 66.9952
rwrist -0.496894
rhand -20.1563 -12.1967
rfingers 7.12502
rthumb 6.18888 -402.086
lclavicle -3.01178e-014 -5.66536e-014
lhumerus -50.8572 -2.26789 78.4619
lradius 50.245
lwrist 18.3859
lhand -7.91555 11.7469
lfingers 7.12502
lthumb 17.9901 40.9349
rfemur -2.69072 -17.1552 25.5359
rtibia 50.2564
rfoot -28.834 10.9136
rtoes 2.5854
lfemur -42.0548 10.4019 -13.2178
ltibia 41.2487
lfoot -4.05663 -8.22278
ltoes 19.2503
598
root 4.37106 15.9379 27.9764 -360.725 1.44894 -9.86943
lowerback 1.45797 3.97792 1.8635
upperback -0.748983 5.41715 3.80131
thorax -1.78236 2.71503 2.69652
lowerneck -5.74944 -6.44929 0.933608
upperneck 2.88515 -8.77654 2.33076
head 1.94488 -4.30267 0.273283
rclavicle 3.8499e-014 1.41137e-014
rhumerus -29.0656 17.7885 -82.4047
rradius 68.008
rwrist -2.43455
rhand -19.9415 -11.7209
rfingers 7.12502
rthumb 6.39627 -401.604
lclavicle 3.8499e-014 1.41137e-014
lhumerus -51.2483 -2.08328 78.218
lradius 50.1593
lwrist 18.914
lhand -6.78995 12.2383
lfingers 7.12502
lthumb 19.0728 41.3231
rfemur -3.24698 -18.7475 24.4002
rtibia 53.091
rfoot -25.6233 13.2734
rtoes 2.53666
lfemur -41.1509 9.54171 -13.0259
ltibia 41.5615
lfoot -3.26709 -8.08494
ltoes 21.2192
599
root 4.40867 15.9511 28.1452 -361.17 1.59308 -9.82216
lowerback 1.38039 3.95033 1.67527
upperback -0.777921 5.37527 3.81937
thorax -1.7862 2.69698 2.82482
lowerneck -5.78011 -6.54669 0.944022
upperneck 3.29885 -8.9254 2.4262
head 2.09201 -4.36725 0.285661
rclavicle 1.35826e-014 -1.09332e-014
rhumerus -29.7859 17.1332 -81.6717
rradius 68.8769
rwrist -4.1998
rhand -19.64 -11.3291
rfingers 7.12502
rthumb 6.68733 -401.203
lclavicle 1.35826e-014 -1.09332e-014
lhumerus -51.5433 -1.85706 77.9622
lradius 50.0737
lwrist 19.528
lhand -5.67653 12.7581
lfingers 7.12502
lthumb 20.1433 41.7339
rfemur -4.22829 -20.2003 23.1739
rtibia 56.4759
rfoot -21.3719 15.4281
rtoes 3.06111
lfemur -40.309 8.91222 -12.9363
ltibia 42.0298
lfoot -2.89534 -7.91223
ltoes 22.7293
600
root 4.44708 15.9626 28.3055 -361.629 1.63865 -9.7192
lowerback 1.40488 3.92432 1.48909
upperback -0.779368 5.33802 3.81565
thorax -1.81655 2.68074 2.92307
lowerneck -5.82361 -6.60921 0.938212
upperneck 3.65553 -9.0258 2.52006
head 2.22396 -4.40832 0.302529
rclavicle 6.28905e-014 -5.96354e-016
rhumerus -30.4625 16.4291 -80.9022
rradius 69.5946
rwrist -5.7569
rhand -19.3023 -11.0334
rfingers 7.12502
rthumb 7.01335 -400.897
lclavicle 6.28905e-014 -5.96354e-016
lhumerus -51.7497 -1.60939 77.7067
lradius 49.9964
lwrist 20.1549
lhand -4.65941 13.2702
lfingers 7.12502
lthumb 21.1206 42.1398
rfemur -5.61465 -21.4225 21.9004
rtibia 60.3211
rfoot -16.0785 17.1012
rtoes 4.22718
lfemur -39.5033 8.49245 -12.9321
ltibia 42.6091
lfoot -2.92852 -7.78068
ltoes 23.8433
601
root 4.48448 15.9717 28.4568 -362.11 1.59579 -9.54657
lowerback 1.53454 3.89684 1.27407
upperback -0.7461 5.29997 3.79154
thorax -1.87047 2.66403 3.01013
lowerneck -5.8692 -6.6351 0.92906
upperneck 3.93407 -9.07433 2.59823
head 2.32997 -4.42508 0.318636
rclavicle -3.54085e-014 1.47101e-014
rhumerus -31.0864 15.6986 -80.0956
rradius 70.1663
rwrist -7.12747
rhand -18.9663 -10.846
rfingers 7.12502
rthumb 7.33765 -400.699
lclavicle -3.54085e-014 1.47101e-014
lhumerus -51.8747 -1.36036 77.4682
lradius 49.9249
lwrist 20.7214
lhand -3.80304 13.719
lfingers 7.12502
lthumb 21.9431 42.4945
rfemur -7.36745 -22.3533 20.6112
rtibia 64.5187
rfoot -9.85557 18.1318
rtoes 6.01978
lfemur -38.7008 8.27423 -13.01
ltibia 43.2411
lfoot -3.25988 -7.74357
ltoes 24.8721
602
root 4.51931 15.9789 28.5996 -362.633 1.49966 -9.30498
lowerback 1.77896 3.85673 1.01375
upperback -0.670972 5.24517 3.75288
thorax -1.94726 2.63909 3.10154
lowerneck -5.91572 -6.62428 0.924347
upperneck 4.13466 -9.07014 2.64528
head 2.4082 -4.41766 0.328118
rclavicle -3.24267e-014 9.74045e-015
rhumerus -31.6516 14.9714 -79.2566
rradius 70.5926
rwrist -8.27605
rhand -18.6901 -10.8184
rfingers 7.12502
rthumb 7.60427 -400.662
lclavicle -3.24267e-014 9.74045e-015
lhumerus -51.9297 -1.13355 77.2651
lradius 49.8571
lwrist 21.1802
lhand -3.13099 14.0549
lfingers 7.12502
lthumb 22.5882 42.7533
rfemur -9.4109 -22.9753 19.3291
rtibia 68.9466
rfoot -3.08069 18.5223
rtoes 7.74384
lfemur -37.8528 8.2275 -13.1602
ltibia 43.8661
lfoot -3.77178 -7.84816
ltoes 26.0767
603
root 4.55042 15.9851 28.7346 -363.191 1.36117 -8.98509
lowerback 2.1165 3.80075 0.681302
upperback -0.555145 5.16676 3.69946
thorax -2.03772 2.60285 3.2143
lowerneck -5.95176 -6.57474 0.933309
upperneck 4.25416 -9.01041 2.65855
head 2.45452 -4.38494 0.329292
rclavicle -3.87133e-014 3.97569e-016
rhumerus -32.1553 14.2672 -78.3926
rradius 70.8905
rwrist -9.23534
rhand -18.5187 -10.9579
rfingers 7.12502
rthumb 7.76975 -400.795
lclavicle -3.87133e-014 3.97569e-016
lhumerus -51.9251 -0.950702 77.11
lradius 49.7918
lwrist 21.5018
lhand -2.66769 14.2498
lfingers 7.12502
lthumb 23.0329 42.8935
rfemur -11.6999 -23.2788 18.0595
rtibia 73.4963
rfoot 3.85583 18.4075
rtoes 8.84651
lfemur -36.9435 8.36206 -13.402
ltibia 44.4342
lfoot -4.36394 -8.0998
ltoes 27.2592
